# File generated by ImageToStl.com - Free Image and 3D model conversion tools

mtllib shattered_glass.mtl

o obj1
v -0.00601073 -0.05753067 -0.10993197
v -0.00601073 -0.06595962 -0.09997038
v -0.00601073 -0.05254992 -0.06165698
v -0.00601073 -0.09366885 0.20745435
v -0.00601073 -0.1492234 0.2388714
v -0.00601073 -0.13428114 0.24998233
v -0.00601073 -0.10554603 0.25841129
v -0.00601073 -0.182173 0.23197499
v -0.00601073 -0.20286228 0.2683728
v 0.00601071 -0.14922339 0.2388714
v 0.00601071 -0.09366885 0.20745435
v 0.00601071 -0.10554603 0.25841129
v 0.00601071 -0.13428113 0.24998233
v 0.00601071 -0.20286226 0.26837277
v 0.00601071 -0.18217298 0.23197499
v -0.00601073 -0.24066912 -0.39383486
v -0.00601073 -0.21423282 -0.37429497
v -0.00601073 -0.24258479 -0.43253148
v -0.00601073 -0.22457746 -0.34441048
v -0.00601073 -0.19775802 -0.28770652
v -0.00601073 -0.19124472 -0.3252537
v -0.00601073 -0.16710722 -0.25437373
v -0.00601073 0.03212287 -0.16510338
v -0.00601073 0.0302072 -0.18732518
v -0.00601073 0.01105046 -0.10456806
v -0.00601073 0.05357842 -0.26203647
v -0.00601073 0.05166275 -0.21184583
v -0.00601073 0.06660501 -0.25897142
v -0.00601073 0.0631568 -0.28962222
v 0.00601072 -0.0514293 -1
v 0.00601072 -1 1
v 0.00601072 -1 -1
v 0.00601071 -0.23224014 -0.48617035
v 0.00601071 -0.44583416 0.17225501
v 0.00601071 -0.24258479 -0.43253148
v 0.00601071 -0.18856278 -0.60149395
v 0.00601071 -0.12342986 -0.75819612
v 0.00601071 -0.0391402 -0.9670046
v 0.00601071 -0.16710722 -0.25437373
v 0.00601071 -0.1786935 -0.09085496
v 0.00601071 -0.19775802 -0.28770649
v 0.00601071 -0.13878362 -0.0870857
v 0.00601071 -0.11883223 -0.15705746
v 0.00601071 -0.11816351 -0.10238448
v 0.00601071 -0.11040325 -0.13675132
v 0.00601071 -0.09361979 0.04249182
v 0.00601071 -0.2406691 -0.39383483
v 0.00601071 -0.22457746 -0.34441048
v 0.00601071 -0.11417253 -0.02056924
v 0.00601071 -0.08696815 0.03340124
v 0.00601071 -0.2672289 0.20707121
v 0.00601072 -0.30770051 1
v 0.00601071 -0.37300789 0.18483409
v 0.00601071 -0.29289895 0.22124723
v 0.00601072 0.21421134 1
v 0.00601071 -0.05235423 0.08320001
v 0.00601071 -0.02476854 0.09864798
v 0.00601071 -0.0109757 0.10085484
v 0.00601071 0.04585086 0.29781681
v 0.00601071 0.14404717 0.61242628
v -0.00601073 0.00327244 -0.01670779
v -0.00601073 0.00127695 -0.02114221
v -0.00601073 -0.0064833 -0.01249508
v -0.00601073 -0.01801281 -0.01537746
v -0.00601073 -0.03109437 -0.01338197
v -0.00601073 -0.00493125 -0.02291599
v -0.00601073 0.00371588 -0.00517828
v -0.00601073 0.01036752 -0.00429139
v -0.00601072 1 -0.22775173
v -0.00601073 0.07311831 -0.36011904
v -0.00601073 0.07503398 -0.42525196
v -0.00601073 0.07503398 -0.51069105
v -0.00601073 -0.0391402 -0.96700454
v -0.00601072 1 -1
v -0.00601072 -0.0514293 -1
v -0.00601073 -0.01155449 -0.87850046
v -0.00601073 0.02982407 -0.74287075
v -0.00601073 0.06200739 -0.61222178
v -0.00601073 -0.07132353 -0.17544803
v -0.00601073 -0.05331619 -0.29115477
v -0.00601073 -0.0732392 -0.23943156
v -0.00601073 -0.02189913 -0.33942977
v -0.00601073 -0.03685913 -0.01094303
v -0.00601073 0.01105046 -0.37544444
v -0.00601073 -0.11417253 -0.02056924
v -0.00601073 -0.13878362 -0.0870857
v -0.00601073 -0.1786935 -0.09085497
v -0.00601073 -0.11816352 -0.10238449
v -0.00601073 -0.11040326 -0.13675132
v -0.00601073 -0.07011733 0.01699386
v -0.00601073 -0.06523946 0.01655042
v -0.00601073 -0.06191364 0.01366804
v -0.00601073 -0.05703577 0.01411148
v -0.00601073 -0.04705831 0.00679468
v -0.00601073 -0.04395421 0.00058648
v -0.00601073 -0.03752429 -0.00673033
v -0.00601073 -0.23224014 -0.48617035
v -0.00601073 -0.18856278 -0.60149395
v -0.00601073 -0.12342986 -0.75819612
v -0.00601073 -0.11883223 -0.15705746
v -0.00601073 0.12428795 0.07579437
v -0.00601073 0.00127695 0.02541927
v -0.00601073 -0.00182715 0.04227009
v -0.00601073 0.00667518 0.00667526
v -0.00601072 1 -0.22679567
v -0.00601072 1 0.26510784
v -0.00601073 -0.00515297 0.00945533
v -0.00601073 0.50864327 0.49333712
v -0.00601073 0.10864329 0.12687898
v -0.00601073 0.09547304 0.14145049
v -0.00601072 1 0.93584001
v -0.00601073 0.0993842 0.11793917
v -0.00601073 0.04585086 0.29781681
v -0.00601073 0.02819598 0.11188912
v -0.00601073 -0.0109757 0.10085484
v -0.00601073 0.0331614 0.11961311
v -0.00601073 0.05798852 0.10582028
v -0.00601073 0.14404717 0.61242628
v -0.00601072 0.21421134 1
v -0.00601072 1 1
v -0.00601073 -0.25490609 0.80659455
v -0.00601072 -0.30770051 1
v -0.00601073 -0.05235423 0.08320001
v -0.00601073 -0.02476854 0.09864799
v -0.00136895 1 -0.22775173
v 0.00601072 1 -0.22775173
v 0.00601072 1 -0.22679567
v 0.00601071 0.02819598 0.11188912
v 0.00601071 0.0331614 0.11961311
v 0.00601071 0.05798852 0.10582027
v 0.00601071 0.09547304 0.14145049
v 0.00601071 0.50864327 0.49333709
v 0.00601072 1 1
v 0.00601072 1 0.93584001
v 0.00601071 0.12428795 0.07579437
v 0.00601071 0.10864328 0.12687898
v 0.00601071 0.0993842 0.11793916
v 0.00601072 1 0.26510784
v 0.00601071 0.00127695 0.02541927
v 0.00601071 -0.00515297 0.00945533
v 0.00601071 -0.00182715 0.04227009
v 0.00601071 0.0731183 -0.36011904
v 0.00601071 0.066605 -0.25897142
v 0.00601071 0.0631568 -0.28962222
v 0.00601072 1 -1
v 0.00601071 -0.01155449 -0.87850046
v 0.00601071 0.02982407 -0.74287075
v 0.00601071 0.06200739 -0.61222172
v 0.00601071 0.07503398 -0.51069105
v 0.00601071 0.07503398 -0.42525196
v 0.00601071 0.01105046 -0.10456806
v 0.00601071 -0.01801281 -0.01537746
v 0.00601071 -0.03109437 -0.01338197
v 0.00601071 -0.00493125 -0.02291599
v 0.00601071 0.00127695 -0.02114221
v 0.00601071 0.00327244 -0.01670779
v 0.00601071 0.00371588 -0.00517828
v 0.00601071 0.01036752 -0.00429139
v 0.00601071 0.03212287 -0.16510338
v 0.00601071 0.05166275 -0.21184582
v 0.00601071 -0.0064833 -0.01249508
v 0.00601071 -0.21423282 -0.37429497
v 0.00601071 -0.19124472 -0.3252537
v 0.00601071 -0.07323919 -0.23943156
v 0.00601071 -0.05331618 -0.29115477
v 0.00601071 -0.02189913 -0.33942974
v 0.00601071 0.01105046 -0.37544441
v 0.00601071 -0.07132353 -0.17544803
v 0.00601071 -0.06595962 -0.09997037
v 0.00601071 -0.05753067 -0.10993196
v 0.00601071 -0.05254992 -0.06165697
v 0.00601071 -0.03685913 -0.01094303
v 0.00601071 0.0302072 -0.18732518
v 0.00601071 0.05357842 -0.26203644
v 0.00601071 -0.07011733 0.01699386
v 0.00601071 -0.06523946 0.01655042
v 0.00601071 -0.06191364 0.01366804
v 0.00601071 -0.05703577 0.01411148
v 0.00601071 -0.04705831 0.00679468
v 0.00601071 -0.04395421 0.00058648
v 0.00601071 -0.03752429 -0.00673033
v 0.00601071 -0.07455176 0.0340664
v 0.00601071 -0.07122594 0.02142829
v 0.00601071 -0.07233454 0.0267496
v 0.00601071 -0.06745668 0.01987624
v 0.00601071 -0.06923045 0.03251436
v 0.00601071 -0.06923045 0.02807993
v 0.00601071 -0.07056077 0.04071805
v 0.00601071 -0.06449193 0.04237319
v 0.00601071 -0.06173336 0.03795948
v 0.00601071 -0.05014737 0.0506489
v 0.00601071 -0.04463024 0.0672003
v 0.00601071 -0.03856139 0.05340747
v 0.00601071 -0.0352511 0.06278659
v -0.00601072 -1 -1
v -0.00601072 -1 1
vn -1 0 -0
vn 1 0 0
vn -1 0 -0
vn 1 0 -0
vn -1 0 -0
vn -1 0 0
vn -1 0 0
vn -1 0 -0
vn -1 0 -0
vn -1 0 -0
vn -1 0 -0
vn -1 0 0
vn -1 0 0
vn 0 1 -0
vn 1 -0 -0
vn 1 -0 0
vn 1 -0 0
vn 1 -0 0
vn 1 0 -0
vn 1 0 -0
vn 1 0 -0
vn 1 0 -0
vn 1 0 0
vn -1 -0 -0
vt 0.55496 0.52878
vt 0.54999 0.53298
vt 0.53083 0.52627
vt 0.39628 0.54682
vt 0.38057 0.5746
vt 0.37501 0.56715
vt 0.3708 0.55276
vt 0.38401 0.59109
vt 0.36581 0.60144
vt 0.38056 0.57462
vt 0.3708 0.55276
vt 0.36581 0.60144
vt 0.38401 0.59109
vt 0.69692 0.62033
vt 0.68715 0.60713
vt 0.71627 0.62129
vt 0.6722 0.61227
vt 0.64385 0.59888
vt 0.66263 0.59564
vt 0.62719 0.58357
vt 0.58255 0.48393
vt 0.59366 0.4849
vt 0.55229 0.49446
vt 0.63102 0.47321
vt 0.60592 0.47415
vt 0.62949 0.46669
vt 0.64481 0.46842
vt 1 0.52571
vt 0 1
vt 1 1
vt 0.74308 0.61612
vt 0.41387 0.72294
vt 0.71627 0.62129
vt 0.80074 0.59427
vt 0.8791 0.56172
vt 0.9835 0.51957
vt 0.62719 0.58357
vt 0.54543 0.58934
vt 0.64385 0.59888
vt 0.54354 0.56941
vt 0.57853 0.55941
vt 0.55119 0.5591
vt 0.56838 0.5552
vt 0.47875 0.54682
vt 0.69692 0.62033
vt 0.6722 0.61227
vt 0.51029 0.55706
vt 0.4833 0.54348
vt 0.39647 0.63361
vt 0 0.65385
vt 0.40758 0.68652
vt 0.38937 0.64646
vt 0 0.39289
vt 0.4584 0.52617
vt 0.45067 0.51239
vt 0.44958 0.50548
vt 0.35109 0.47707
vt 0.1938 0.42796
vt 0.50836 0.49836
vt 0.51057 0.49935
vt 0.50625 0.50323
vt 0.50769 0.50902
vt 0.50669 0.51554
vt 0.51146 0.50246
vt 0.50259 0.49816
vt 0.50215 0.49481
vt 0.61388 0
vt 0.68006 0.46345
vt 0.71262 0.46248
vt 0.75535 0.46248
vt 0.9835 0.51957
vt 1 0
vt 0.93926 0.50579
vt 0.87143 0.48509
vt 0.80611 0.469
vt 0.58772 0.53566
vt 0.64558 0.52667
vt 0.61972 0.53662
vt 0.66971 0.51093
vt 0.50548 0.5184
vt 0.68772 0.49449
vt 0.51029 0.55706
vt 0.54354 0.56941
vt 0.54543 0.58934
vt 0.55119 0.5591
vt 0.56838 0.5552
vt 0.4915 0.53505
vt 0.49172 0.53263
vt 0.49317 0.53095
vt 0.49294 0.52853
vt 0.4966 0.52352
vt 0.4997 0.52199
vt 0.50336 0.51878
vt 0.74308 0.61612
vt 0.80074 0.59427
vt 0.8791 0.56172
vt 0.57853 0.55941
vt 0.4621 0.43785
vt 0.48729 0.49937
vt 0.47887 0.5009
vt 0.49666 0.49668
vt 0.6134 0
vt 0.36745 0
vt 0.49527 0.50259
vt 0.25333 0.24568
vt 0.43656 0.44567
vt 0.42927 0.45227
vt 0.03208 0
vt 0.44103 0.4503
vt 0.44405 0.48591
vt 0.44958 0.50548
vt 0.4402 0.48341
vt 0.44709 0.471
vt 0.1938 0.42796
vt 0 0
vt 0.0967 0.62745
vt 0 0.65385
vt 0.4584 0.52617
vt 0.45067 0.51239
vt 0.61388 0
vt 0.61388 0
vt 0.6134 0
vt 0.44405 0.48591
vt 0.4402 0.48341
vt 0.42927 0.45227
vt 0.25334 0.24567
vt 0.03208 0
vt 0.43656 0.44567
vt 0.44103 0.4503
vt 0.36745 0
vt 0.48729 0.49937
vt 0.49527 0.50259
vt 0.47887 0.5009
vt 0.62949 0.46669
vt 0.64481 0.46842
vt 0.93926 0.50579
vt 0.87143 0.48509
vt 0.80611 0.46899
vt 0.75535 0.46248
vt 0.71262 0.46248
vt 0.55229 0.49446
vt 0.50769 0.50902
vt 0.50669 0.51554
vt 0.51146 0.50246
vt 0.51057 0.49935
vt 0.50836 0.49836
vt 0.50215 0.49481
vt 0.58255 0.48393
vt 0.60592 0.47415
vt 0.50625 0.50323
vt 0.66263 0.59564
vt 0.61972 0.53662
vt 0.64558 0.52667
vt 0.66971 0.51093
vt 0.68772 0.49449
vt 0.58772 0.53566
vt 0.54999 0.53298
vt 0.53083 0.52627
vt 0.50548 0.5184
vt 0.59366 0.4849
vt 0.63102 0.47321
vt 0.4915 0.53505
vt 0.49172 0.53263
vt 0.49317 0.53095
vt 0.49294 0.52853
vt 0.4966 0.52352
vt 0.4997 0.52199
vt 0.50336 0.51878
vt 0.48296 0.53729
vt 0.48928 0.53563
vt 0.48662 0.53618
vt 0.49006 0.53372
vt 0.48374 0.53463
vt 0.48596 0.53461
vt 0.47964 0.53527
vt 0.47881 0.53226
vt 0.48102 0.53088
vt 0.47468 0.52504
vt 0.4664 0.52233
vt 0.47329 0.51929
vt 0.46861 0.51762
usemtl mat0
f 1/1/1 2/2/1 3/3/1
f 2/2/1 3/3/1 1/1/1
f 4/4/1 5/5/1 6/6/1
f 4/4/1 6/6/1 7/7/1
f 5/5/1 8/8/1 9/9/1
f 5/5/1 9/9/1 6/6/1
f 10/10/2 11/4/2 12/11/2
f 10/10/2 12/11/2 13/6/2
f 10/10/2 13/6/2 14/12/2
f 10/10/2 14/12/2 15/13/2
f 16/14/1 17/15/1 18/16/1
f 17/15/1 16/14/1 19/17/1
f 17/15/1 19/17/1 20/18/1
f 17/15/1 20/18/1 21/19/1
f 21/19/1 20/18/1 22/20/1
f 23/21/3 24/22/3 25/23/3
f 24/22/3 23/21/3 26/24/3
f 26/24/3 23/21/3 27/25/3
f 26/24/3 27/25/3 28/26/3
f 26/24/3 28/26/3 29/27/3
f 30/28/4 31/29/4 32/30/4
f 31/29/4 30/28/4 33/31/4
f 31/29/4 33/31/4 34/32/4
f 34/32/4 33/31/4 35/33/4
f 33/31/4 30/28/4 36/34/4
f 36/34/4 30/28/4 37/35/4
f 37/35/4 30/28/4 38/36/4
f 39/37/4 40/38/4 41/39/4
f 40/38/4 39/37/4 42/40/4
f 42/40/4 39/37/4 43/41/4
f 42/40/4 43/41/4 44/42/4
f 44/42/4 43/41/4 45/43/4
f 34/32/4 40/38/4 46/44/4
f 40/38/4 34/32/4 47/45/4
f 47/45/4 34/32/4 35/33/4
f 40/38/4 47/45/4 48/46/4
f 40/38/4 48/46/4 41/39/4
f 46/44/4 40/38/4 49/47/4
f 46/44/4 49/47/4 50/48/4
f 15/13/4 14/12/4 51/49/4
f 34/32/4 52/50/4 31/29/4
f 52/50/4 34/32/4 53/51/4
f 52/50/4 53/51/4 54/52/4
f 52/50/4 54/52/4 55/53/4
f 55/53/4 54/52/4 51/49/4
f 55/53/4 51/49/4 14/12/4
f 55/53/4 14/12/4 13/6/4
f 55/53/4 13/6/4 12/11/4
f 55/53/4 12/11/4 11/4/4
f 55/53/4 11/4/4 56/54/4
f 55/53/4 56/54/4 57/55/4
f 55/53/4 57/55/4 58/56/4
f 55/53/4 58/56/4 59/57/4
f 55/53/4 59/57/4 60/58/4
f 61/59/5 62/60/5 63/61/5
f 64/62/5 25/23/5 65/63/5
f 25/23/5 64/62/5 66/64/5
f 25/23/5 66/64/5 62/60/5
f 25/23/5 62/60/5 61/59/5
f 25/23/5 61/59/5 67/65/5
f 25/23/5 67/65/5 68/66/5
f 25/23/5 68/66/5 69/67/5
f 25/23/5 69/67/5 23/21/5
f 23/21/5 69/67/5 27/25/5
f 27/25/5 69/67/5 28/26/5
f 28/26/5 69/67/5 70/68/5
f 70/68/5 69/67/5 71/69/5
f 71/69/5 69/67/5 72/70/5
f 73/71/5 74/72/5 75/28/5
f 74/72/5 73/71/5 76/73/5
f 74/72/5 76/73/5 77/74/5
f 74/72/5 77/74/5 78/75/5
f 74/72/5 78/75/5 72/70/5
f 74/72/5 72/70/5 69/67/5
f 70/68/5 29/27/5 28/26/5
f 79/76/6 80/77/6 81/78/6
f 80/77/6 79/76/6 1/1/6
f 80/77/6 1/1/6 3/3/6
f 80/77/6 3/3/6 82/79/6
f 82/79/6 3/3/6 83/80/6
f 82/79/6 83/80/6 65/63/6
f 82/79/6 65/63/6 25/23/6
f 82/79/6 25/23/6 84/81/6
f 84/81/6 25/23/6 24/22/6
f 84/81/6 24/22/6 71/69/6
f 71/69/6 24/22/6 26/24/6
f 71/69/6 26/24/6 29/27/6
f 71/69/6 29/27/6 70/68/6
f 85/82/7 86/83/7 87/84/7
f 86/83/7 85/82/7 88/85/7
f 88/85/7 85/82/7 89/86/7
f 89/86/7 85/82/7 90/87/7
f 89/86/7 90/87/7 2/2/7
f 2/2/7 90/87/7 91/88/7
f 2/2/7 91/88/7 3/3/7
f 3/3/7 91/88/7 92/89/7
f 3/3/7 92/89/7 93/90/7
f 3/3/7 93/90/7 94/91/7
f 3/3/7 94/91/7 95/92/7
f 3/3/7 95/92/7 83/80/7
f 83/80/7 95/92/7 96/93/7
f 89/86/8 79/76/8 81/78/8
f 79/76/8 89/86/8 2/2/8
f 79/76/8 2/2/8 1/1/8
f 17/15/8 97/94/8 18/16/8
f 97/94/8 17/15/8 98/95/8
f 98/95/8 17/15/8 21/19/8
f 98/95/8 21/19/8 22/20/8
f 98/95/8 22/20/8 99/96/8
f 99/96/8 22/20/8 100/97/8
f 99/96/8 100/97/8 73/71/8
f 73/71/8 100/97/8 89/86/8
f 73/71/8 89/86/8 81/78/8
f 73/71/8 81/78/8 80/77/8
f 73/71/8 80/77/8 82/79/8
f 73/71/8 82/79/8 76/73/8
f 76/73/8 82/79/8 84/81/8
f 76/73/8 84/81/8 77/74/8
f 77/74/8 84/81/8 71/69/8
f 77/74/8 71/69/8 78/75/8
f 78/75/8 71/69/8 72/70/8
f 23/21/9 24/22/9 25/23/9
f 24/22/9 23/21/9 26/24/9
f 26/24/9 23/21/9 27/25/9
f 26/24/9 27/25/9 28/26/9
f 26/24/9 28/26/9 29/27/9
f 101/98/10 102/99/10 103/100/10
f 102/99/10 101/98/10 104/101/10
f 104/101/10 101/98/10 105/102/10
f 105/102/10 101/98/10 106/103/10
f 104/101/10 107/104/10 102/99/10
f 108/105/11 109/106/11 110/107/11
f 109/106/11 108/105/11 101/98/11
f 101/98/11 108/105/11 106/103/11
f 106/103/11 108/105/11 111/108/11
f 101/98/11 112/109/11 109/106/11
f 113/57/12 114/110/12 115/111/12
f 114/110/12 113/57/12 116/112/12
f 116/112/12 113/57/12 117/113/12
f 117/113/12 113/57/12 118/114/12
f 117/113/12 118/114/12 110/107/12
f 110/107/12 118/114/12 108/105/12
f 108/105/12 118/114/12 119/53/12
f 108/105/12 119/53/12 120/115/12
f 108/105/12 120/115/12 111/108/12
f 119/53/13 121/116/13 122/117/13
f 121/116/13 119/53/13 7/7/13
f 7/7/13 119/53/13 4/4/13
f 4/4/13 119/53/13 123/118/13
f 123/118/13 119/53/13 124/119/13
f 124/119/13 119/53/13 115/111/13
f 115/111/13 119/53/13 113/57/13
f 113/57/13 119/53/13 118/114/13
f 105/102/14 125/120/14 69/67/14
f 125/120/14 105/102/14 126/121/14
f 126/121/14 105/102/14 127/122/14
f 128/123/15 59/57/15 58/56/15
f 59/57/15 128/123/15 129/124/15
f 59/57/15 129/124/15 130/113/15
f 59/57/15 130/113/15 60/58/15
f 60/58/15 130/113/15 131/125/15
f 60/58/15 131/125/15 132/126/15
f 60/58/15 132/126/15 55/53/15
f 55/53/15 132/126/15 133/115/15
f 133/115/15 132/126/15 134/127/15
f 135/98/16 136/128/16 137/129/16
f 136/128/16 132/126/16 131/125/16
f 132/126/16 136/128/16 135/98/16
f 132/126/16 135/98/16 138/130/16
f 132/126/16 138/130/16 134/127/16
f 127/122/17 139/131/17 140/132/17
f 139/131/17 127/122/17 135/98/17
f 135/98/17 127/122/17 138/130/17
f 135/98/17 141/133/17 139/131/17
f 142/68/18 143/134/18 144/135/18
f 145/72/18 38/36/18 30/28/18
f 38/36/18 145/72/18 146/136/18
f 146/136/18 145/72/18 147/137/18
f 147/137/18 145/72/18 148/138/18
f 148/138/18 145/72/18 149/139/18
f 149/139/18 145/72/18 150/140/18
f 151/141/18 152/142/18 153/143/18
f 152/142/18 151/141/18 154/144/18
f 154/144/18 151/141/18 155/145/18
f 155/145/18 151/141/18 156/146/18
f 156/146/18 151/141/18 157/65/18
f 157/65/18 151/141/18 158/147/18
f 158/147/18 151/141/18 126/121/18
f 126/121/18 151/141/18 159/148/18
f 126/121/18 159/148/18 160/149/18
f 126/121/18 160/149/18 143/134/18
f 126/121/18 143/134/18 142/68/18
f 126/121/18 142/68/18 150/140/18
f 126/121/18 150/140/18 145/72/18
f 156/146/18 161/150/18 155/145/18
f 33/31/19 162/15/19 35/33/19
f 162/15/19 33/31/19 36/34/19
f 162/15/19 36/34/19 163/151/19
f 163/151/19 36/34/19 39/37/19
f 39/37/19 36/34/19 37/35/19
f 39/37/19 37/35/19 43/41/19
f 43/41/19 37/35/19 38/36/19
f 43/41/19 38/36/19 45/43/19
f 45/43/19 38/36/19 164/152/19
f 164/152/19 38/36/19 165/153/19
f 165/153/19 38/36/19 166/154/19
f 166/154/19 38/36/19 146/136/19
f 166/154/19 146/136/19 167/155/19
f 167/155/19 146/136/19 147/137/19
f 167/155/19 147/137/19 150/140/19
f 150/140/19 147/137/19 148/138/19
f 150/140/19 148/138/19 149/139/19
f 45/43/19 168/156/19 169/157/19
f 168/156/19 45/43/19 164/152/19
f 169/157/19 168/156/19 170/1/19
f 162/15/20 47/45/20 35/33/20
f 47/45/20 162/15/20 48/46/20
f 48/46/20 162/15/20 41/39/20
f 41/39/20 162/15/20 163/151/20
f 41/39/20 163/151/20 39/37/20
f 165/153/21 168/156/21 164/152/21
f 168/156/21 165/153/21 170/1/21
f 170/1/21 165/153/21 171/158/21
f 171/158/21 165/153/21 166/154/21
f 171/158/21 166/154/21 172/159/21
f 172/159/21 166/154/21 153/143/21
f 153/143/21 166/154/21 151/141/21
f 151/141/21 166/154/21 167/155/21
f 151/141/21 167/155/21 173/160/21
f 173/160/21 167/155/21 150/140/21
f 173/160/21 150/140/21 174/161/21
f 174/161/21 150/140/21 144/135/21
f 144/135/21 150/140/21 142/68/21
f 42/40/22 49/47/22 40/38/22
f 49/47/22 42/40/22 44/42/22
f 49/47/22 44/42/22 45/43/22
f 49/47/22 45/43/22 175/162/22
f 175/162/22 45/43/22 169/157/22
f 175/162/22 169/157/22 176/163/22
f 176/163/22 169/157/22 171/158/22
f 176/163/22 171/158/22 177/164/22
f 177/164/22 171/158/22 178/165/22
f 178/165/22 171/158/22 179/166/22
f 179/166/22 171/158/22 180/167/22
f 180/167/22 171/158/22 172/159/22
f 180/167/22 172/159/22 181/168/22
f 175/162/23 50/48/23 49/47/23
f 50/48/23 175/162/23 182/169/23
f 182/169/23 175/162/23 183/170/23
f 182/169/23 183/170/23 184/171/23
f 183/170/23 175/162/23 185/172/23
f 184/171/23 186/173/23 182/169/23
f 186/173/23 184/171/23 187/174/23
f 46/44/2 53/51/2 34/32/2
f 53/51/2 46/44/2 54/52/2
f 54/52/2 46/44/2 51/49/2
f 51/49/2 46/44/2 15/13/2
f 15/13/2 46/44/2 10/10/2
f 10/10/2 46/44/2 11/4/2
f 11/4/2 46/44/2 56/54/2
f 56/54/2 46/44/2 188/175/2
f 56/54/2 188/175/2 189/176/2
f 56/54/2 189/176/2 190/177/2
f 56/54/2 190/177/2 191/178/2
f 56/54/2 191/178/2 192/179/2
f 192/179/2 191/178/2 193/180/2
f 192/179/2 193/180/2 194/181/2
f 122/117/24 195/30/24 196/29/24
f 195/30/24 122/117/24 18/16/24
f 195/30/24 18/16/24 97/94/24
f 195/30/24 97/94/24 75/28/24
f 18/16/24 122/117/24 121/116/24
f 75/28/24 97/94/24 98/95/24
f 75/28/24 98/95/24 99/96/24
f 75/28/24 99/96/24 73/71/24
f 121/116/24 16/14/24 18/16/24
f 16/14/24 121/116/24 9/9/24
f 9/9/24 121/116/24 7/7/24
f 16/14/24 9/9/24 19/17/24
f 9/9/24 7/7/24 6/6/24
f 5/5/24 87/84/24 8/8/24
f 87/84/24 5/5/24 85/82/24
f 85/82/24 5/5/24 4/4/24
f 85/82/24 4/4/24 90/87/24
f 90/87/24 4/4/24 123/118/24
f 9/9/24 20/18/24 19/17/24
f 20/18/24 9/9/24 8/8/24
f 20/18/24 8/8/24 87/84/24
f 20/18/24 87/84/24 22/20/24
f 22/20/24 87/84/24 86/83/24
f 22/20/24 86/83/24 100/97/24
f 100/97/24 86/83/24 88/85/24
f 100/97/24 88/85/24 89/86/24
# Vertices: 196, normals: 24, texture coordinates: 181, faces: 293

o obj2
v 0.00619231 -0.05753067 -0.10993196
v 0.00619231 -0.05254992 -0.06165697
v 0.00619231 -0.06595962 -0.09997037
v -0.00619233 -0.05753067 -0.10993197
v -0.00619233 -0.06595962 -0.09997038
v -0.00619233 -0.05254992 -0.06165698
v -0.00601072 -1 -1
v 0.00601072 -1 -1
v 0.00601072 -1 1
v -0.00601072 -1 1
v 0.00619231 0.1075702 -0.07337978
v 0.00619231 0.12912154 -0.09812389
v -0.00619233 0.12912154 -0.0981239
v -0.00619233 0.10757021 -0.07337978
v 0.00619231 -0.05753067 -0.10993196
v 0.00619231 -0.05254992 -0.06165697
v -0.00619233 -0.05254992 -0.06165698
v -0.00619233 -0.05753067 -0.10993197
v 0.00619231 0.38428926 -0.27421263
v 0.00619231 0.4633683 -0.32248759
v -0.00619233 0.4633683 -0.32248759
v -0.00619233 0.38428929 -0.27421263
v 0.00619231 -0.11816351 -0.10238448
v 0.00619231 -0.13878362 -0.0870857
v -0.00619233 -0.13878362 -0.0870857
v -0.00619233 -0.11816352 -0.10238449
v 0.00619231 -0.44583416 0.17225501
v 0.00619231 -0.37300789 0.18483409
v -0.00619233 -0.37300789 0.18483409
v -0.00619233 -0.44583416 0.17225501
v 0.00619231 -0.29289895 0.22124723
v 0.00619231 -0.2672289 0.20707121
v -0.00619233 -0.26722893 0.20707123
v -0.00619233 -0.29289898 0.22124723
v 0.00619231 0.0731183 -0.36011904
v 0.00619231 0.07503398 -0.42525196
v -0.00619233 0.07503398 -0.42525196
v -0.00619233 0.07311831 -0.36011904
v 0.00619231 -0.07122594 0.02142829
v 0.00619231 -0.06745668 0.01987624
v -0.00619233 -0.06745668 0.01987624
v -0.00619233 -0.07122594 0.02142829
v 0.00619231 -0.18658316 -0.08115608
v 0.00619231 -0.2048752 -0.10388254
v -0.00619233 -0.2048752 -0.10388254
v -0.00619233 -0.18658318 -0.08115608
v 0.00619231 -0.06923045 0.02807993
v 0.00619231 -0.07233454 0.0267496
v -0.00619233 -0.07233455 0.0267496
v -0.00619233 -0.06923045 0.02807993
v -0.00619233 -0.00515297 0.00945533
v -0.00619232 1 -0.22679567
v 0.00619232 1 -0.22679567
v 0.00619231 -0.00515297 0.00945533
v 0.00619231 -0.21378574 -0.06889576
v -0.00619233 -0.21378575 -0.06889576
v 0.00619231 -0.21423282 -0.37429497
v 0.00619231 -0.19124472 -0.3252537
v -0.00619233 -0.19124472 -0.3252537
v -0.00619233 -0.21423282 -0.37429497
v 0.00619231 0.00127695 -0.02114221
v 0.00619231 -0.0064833 -0.01249508
v -0.00619233 -0.0064833 -0.01249508
v -0.00619233 0.00127695 -0.02114221
v 0.00619231 0.06672912 -0.1262382
v 0.00619231 0.02868172 -0.07275897
v -0.00619233 0.02868172 -0.07275897
v -0.00619233 0.06672912 -0.1262382
v 0.00619231 -0.06923045 0.03251436
v -0.00619233 -0.06923045 0.03251436
v 0.00619231 -0.06173336 0.03795948
v 0.00619231 -0.06449193 0.04237319
v -0.00619233 -0.06449193 0.04237319
v -0.00619233 -0.06173337 0.03795948
v 0.00619231 0.0302072 -0.18732518
v 0.00619231 0.05357842 -0.26203644
v -0.00619233 0.05357842 -0.26203647
v -0.00619233 0.0302072 -0.18732518
v 0.00619231 0.13111705 -0.21670055
v 0.00619231 0.35992396 -0.55196619
v -0.00619233 0.35992396 -0.55196619
v -0.00619233 0.13111705 -0.21670055
v 0.00619231 0.01105046 -0.37544441
v 0.00619231 -0.02189913 -0.33942974
v -0.00619233 -0.02189913 -0.33942977
v -0.00619233 0.01105046 -0.37544444
v 0.00619231 -0.53454983 0.20138553
v -0.00619233 -0.53454983 0.20138553
v 0.00619231 -0.0109757 0.10085484
v 0.00619231 -0.02476854 0.09864798
v -0.00619233 -0.02476854 0.09864799
v -0.00619233 -0.0109757 0.10085484
v 0.00619231 -0.12342986 -0.75819612
v 0.00619231 -0.18856278 -0.60149395
v -0.00619233 -0.18856278 -0.60149395
v -0.00619233 -0.12342986 -0.75819612
v 0.00619231 0.1014507 -0.08003143
v -0.00619233 0.1014507 -0.08003143
v 0.00619231 -0.04395421 0.00058648
v 0.00619231 -0.03752429 -0.00673033
v -0.00619233 -0.03752429 -0.00673033
v -0.00619233 -0.04395421 0.00058648
v 0.00619231 -0.03109437 -0.01338197
v 0.00619231 -0.01801281 -0.01537746
v -0.00619233 -0.01801281 -0.01537746
v -0.00619233 -0.03109437 -0.01338197
v 0.00619231 -0.20286226 0.26837277
v 0.00619231 -0.13428113 0.24998233
v -0.00619233 -0.13428114 0.24998233
v -0.00619233 -0.20286228 0.2683728
v 0.00619231 -0.11883223 -0.15705746
v 0.00619231 -0.11040325 -0.13675132
v -0.00619233 -0.11040326 -0.13675132
v -0.00619233 -0.11883223 -0.15705746
v 0.00619231 0.0631568 -0.28962222
v -0.00619233 0.0631568 -0.28962222
v 0.00619231 -0.18217298 0.23197499
v -0.00619233 -0.182173 0.23197499
v 0.00619231 -0.04463024 0.0672003
v 0.00619231 -0.0352511 0.06278659
v -0.00619233 -0.0352511 0.0627866
v -0.00619233 -0.04463024 0.06720031
v 0.00619231 0.00127695 0.02541927
v -0.00619233 0.00127695 0.02541927
v 0.00619231 -0.21991591 -0.0516547
v -0.00619233 -0.21991591 -0.0516547
v 0.00619231 0.09547304 0.14145049
v 0.00619231 0.50864327 0.49333709
v -0.00619233 0.50864327 0.49333712
v -0.00619233 0.09547304 0.14145049
v 0.00619231 0.2086603 -0.15421483
v 0.00619231 0.28957838 -0.2047886
v -0.00619233 0.28957838 -0.20478861
v -0.00619233 0.2086603 -0.15421483
v 0.00619231 -0.25490609 0.80659449
v 0.00619232 -0.30770051 1
v -0.00619232 -0.30770051 1
v -0.00619233 -0.25490609 0.80659455
v 0.00619231 -0.06595962 -0.09997037
v -0.00619233 -0.06595962 -0.09997038
v 0.00619231 0.02982407 -0.74287075
v 0.00619231 -0.01155449 -0.87850046
v -0.00619233 -0.01155449 -0.87850046
v -0.00619233 0.02982407 -0.74287075
v 0.00619231 -0.28332061 0.35572755
v 0.00619231 -0.3116726 0.41204834
v -0.00619233 -0.3116726 0.41204837
v -0.00619233 -0.28332061 0.35572755
v 0.00619231 0.01105046 -0.10456806
v 0.00619231 0.03212287 -0.16510338
v -0.00619233 0.03212287 -0.16510338
v -0.00619233 0.01105046 -0.10456806
v 0.00619231 -0.46768206 0.36292744
v -0.00619233 -0.46768206 0.36292744
v 0.00619231 -0.10554603 0.25841129
v -0.00619233 -0.10554603 0.25841129
v 0.00619231 0.45049495 -0.29490185
v 0.00619231 0.37877208 -0.24662688
v -0.00619233 0.37877211 -0.2466269
v -0.00619233 0.45049495 -0.29490188
v 0.00619231 0.05166275 -0.21184582
v -0.00619233 0.05166275 -0.21184583
v 0.00619231 0.00500187 -0.04562026
v -0.00619233 0.00500187 -0.04562026
v 0.00619231 0.06200739 -0.61222172
v -0.00619233 0.06200739 -0.61222178
v 0.00619231 -0.00182715 0.04227009
v 0.00619231 0.12428795 0.07579437
v -0.00619233 0.12428795 0.07579437
v -0.00619233 -0.00182715 0.04227009
v 0.00619231 -0.56632853 0.46024978
v -0.00619233 -0.56632859 0.46024981
v 0.00619231 -0.03856139 0.05340747
v 0.00619231 -0.05014737 0.0506489
v -0.00619233 -0.05014737 0.0506489
v -0.00619233 -0.03856139 0.05340747
v 0.00619231 -0.99563205 -0.79991329
v -0.00619233 -0.99563205 -0.79991329
v 0.00619231 -0.31358826 0.26492459
v -0.00619233 -0.31358826 0.26492459
v 0.00619231 0.04585086 0.29781681
v 0.00619231 0.14404717 0.61242628
v -0.00619233 0.14404717 0.61242628
v -0.00619233 0.04585086 0.29781681
v 0.00619231 0.066605 -0.25897142
v -0.00619233 0.06660501 -0.25897142
v 0.00619231 0.0993842 0.11793916
v 0.00619231 0.10864328 0.12687898
v -0.00619233 0.10864329 0.12687898
v -0.00619233 0.0993842 0.11793917
v 0.00619231 -0.07011733 0.01699386
v 0.00619231 -0.06523946 0.01655042
v -0.00619233 -0.06523946 0.01655042
v -0.00619233 -0.07011733 0.01699386
v 0.00619231 -0.03685913 -0.01094303
v -0.00619233 -0.03685913 -0.01094303
v 0.00619231 -0.07056077 0.04071805
v -0.00619233 -0.07056078 0.04071805
v 0.00619231 -0.0391402 -0.9670046
v 0.00619232 -0.0514293 -1
v -0.00619232 -0.0514293 -1
v -0.00619233 -0.0391402 -0.96700454
v 0.00619231 -0.05235423 0.08320001
v 0.00619231 -0.09366885 0.20745435
v -0.00619233 -0.09366885 0.20745435
v -0.00619233 -0.05235423 0.08320001
v 0.00619231 -0.08696815 0.03340124
v 0.00619231 -0.07455176 0.0340664
v -0.00619233 -0.07455176 0.03406641
v -0.00619233 -0.08696815 0.03340124
v 0.00619231 0.0249568 -0.05147371
v -0.00619233 0.0249568 -0.05147371
v 0.00619231 0.05798852 0.10582027
v -0.00619233 0.05798852 0.10582028
v 0.00619231 0.01036752 -0.00429139
v 0.00619232 1 -0.22775173
v -0.00619232 1 -0.22775173
v -0.00619233 0.01036752 -0.00429139
v 0.00619231 0.47118419 -0.31834972
v -0.00619233 0.47118422 -0.31834972
v 0.00619231 -0.05703577 0.01411148
v 0.00619231 -0.04705831 0.00679468
v -0.00619233 -0.04705831 0.00679468
v -0.00619233 -0.05703577 0.01411148
v 0.00619231 0.53417158 -0.4227156
v 0.00619231 0.60681391 -0.55098915
v -0.00619233 0.60681391 -0.55098915
v -0.00619233 0.53417158 -0.42271563
v 0.00619231 0.00327244 -0.01670779
v 0.00619231 0.02482376 -0.01670779
v -0.00619233 0.02482376 -0.01670779
v -0.00619233 0.00327244 -0.01670779
v 0.00619231 -0.70072615 0.61781943
v -0.00619233 -0.70072615 0.61781943
v 0.00619231 0.07503398 -0.51069105
v -0.00619233 0.07503398 -0.51069105
v 0.00619231 -0.2406691 -0.39383483
v 0.00619231 -0.22457746 -0.34441048
v -0.00619233 -0.22457746 -0.34441048
v -0.00619233 -0.24066912 -0.39383486
v 0.00619231 0.00371588 -0.00517828
v -0.00619233 0.00371588 -0.00517828
v 0.00619231 -0.27853554 0.00313359
v -0.00619233 -0.27853554 0.00313359
v 0.00619231 0.0331614 0.11961311
v 0.00619231 0.02819598 0.11188912
v -0.00619233 0.02819598 0.11188912
v -0.00619233 0.0331614 0.11961311
v 0.00619232 0.21421134 1
v -0.00619232 0.21421134 1
v 0.00619231 -0.07132353 -0.17544803
v -0.00619233 -0.07132353 -0.17544803
v 0.00619231 -0.30098525 0.66835701
v -0.00619233 -0.30098525 0.66835701
v 0.00619231 -0.24258479 -0.43253148
v -0.00619233 -0.24258479 -0.43253148
v 0.00619231 -0.25228667 0.33503824
v -0.00619233 -0.25228667 0.33503827
v 0.00619231 -0.14922339 0.2388714
v -0.00619233 -0.1492234 0.2388714
v 0.00619231 -0.19775802 -0.28770649
v 0.00619231 -0.16710722 -0.25437373
v -0.00619233 -0.16710722 -0.25437373
v -0.00619233 -0.19775802 -0.28770652
v 0.00619231 0.04677419 -0.08872293
v -0.00619233 0.04677419 -0.08872293
v 0.00619231 -0.1786935 -0.09085496
v 0.00619231 -0.11417253 -0.02056924
v -0.00619233 -0.11417253 -0.02056924
v -0.00619233 -0.1786935 -0.09085497
v 0.00619231 -0.05331618 -0.29115477
v 0.00619231 -0.07323919 -0.23943156
v -0.00619233 -0.0732392 -0.23943156
v -0.00619233 -0.05331619 -0.29115477
v 0.00619231 -0.23224014 -0.48617035
v -0.00619233 -0.23224014 -0.48617035
v 0.00619231 0.62924874 -0.99686849
v -0.00619233 0.62924874 -0.99686849
v 0.00619231 -0.09361979 0.04249182
v -0.00619233 -0.09361979 0.04249182
v 0.00619232 1 0.26510784
v -0.00619232 1 0.26510784
v 0.00619231 0.70842123 -0.81029475
v -0.00619233 0.70842123 -0.81029475
v 0.00619231 -0.06191364 0.01366804
v -0.00619233 -0.06191364 0.01366804
v -0.00619232 1 0.93584001
v 0.00619232 1 0.93584001
v 0.00619231 -0.00493125 -0.02291599
v -0.00619233 -0.00493125 -0.02291599
v 0.00030913 -0.0514293 -1
v -0.00601072 -0.0514293 -1
v 0.00601072 -0.0514293 -1
v -0.00601072 -0.30770051 1
v -0.0018495 -0.30770051 1
v 0.00601072 -0.30770051 1
v -0.00601072 1 -0.22775173
v 0.00601072 1 -1
v -0.00601072 1 -1
v 0.00601072 1 -0.22775173
v -0.00601072 0.21421134 1
v 0.00128756 0.21421134 1
v 0.00601072 0.21421134 1
v -0.00601072 1 1
v 0.00601072 1 1
v -0.00601072 1 0.26510784
v -0.0013632 1 -0.22679567
v -0.00601072 1 -0.22679567
v 0.00601072 1 -0.22679567
v 0.00601072 1 0.26510784
v -0.00601072 1 0.93584001
v 0.00159349 1 0.26510784
v 0.00601072 1 0.93584001
v 0.00562507 1 0.93584001
v -0.00619233 0.03212287 -0.16510338
v -0.00619233 0.0302072 -0.18732518
v -0.00619233 0.01105046 -0.10456806
v -0.00619233 0.05357842 -0.26203647
v -0.00619233 0.05166275 -0.21184583
v -0.00619233 0.06660501 -0.25897142
v -0.00619233 0.0631568 -0.28962222
vn 0.18272 -0.97578 -0.12024
vn 0.14103 0.85692 -0.49578
vn 0.93648 -0.31978 -0.14402
vn -0.18272 -0.97578 -0.12024
vn -0.93648 -0.31978 -0.14402
vn -0.14103 0.85692 -0.49578
vn 0 -1 -0
vn 0 0.66491 0.74692
vn 0 0.77575 0.63103
vn 0 0.55661 0.83077
vn 0 0.68304 0.73038
vn 0 -0.83796 -0.54574
vn 0 -0.26872 -0.96322
vn 0 -0.67579 -0.7371
vn 0 -0.29439 0.95569
vn 0 -0.9295 0.36883
vn 0 0.99397 -0.10962
vn 0 0.9964 0.08478
vn 0 0.87681 -0.48083
vn 0 0.76948 0.63867
vn 0 0.97646 0.21568
vn 0 0.97256 0.23265
vn 0 0.63841 -0.7697
vn 0 0.83485 -0.55047
vn 0 0.88688 -0.462
vn 0 -0.88768 -0.46047
vn 0 -0.2288 -0.97347
vn 0 0.73545 0.67758
vn 0 -0.90231 0.43109
vn 0 -0.92745 0.37395
vn 0 0.154 0.98807
vn 0 -0.81183 0.58389
vn 0 0.88278 0.46979
vn 0 -0.78514 -0.61932
vn 0 0.8 0.6
vn 0 -0.09055 -0.99589
vn 0 -0.36437 -0.93126
vn 0 0.96501 0.26222
vn 0 0.31346 -0.9496
vn -0.99988 0.00488 -0.01486
vn -0.69868 0.6904 0.1876
vn 0 0.82039 0.57181
vn 0 0.84104 0.54098
vn 0 -0.67844 -0.73466
vn 0 -0.79062 -0.6123
vn 0 -0.31197 -0.95009
vn 0 -0.3029 -0.95302
vn 0 0.32835 -0.94456
vn 0 -0.92537 -0.37908
vn 0 -0.92942 -0.36903
vn 0 -0.84975 0.52719
vn 0 -0.84977 0.52715
vn 0 0.82965 0.55828
vn 0 0.90527 0.42483
vn 0 0.52804 0.84922
vn 0 0.33074 0.94372
vn 0 0.68479 0.72874
vn 0 0.45528 0.89035
vn 0 -0.91023 0.41411
vn 0 -0.93847 0.34536
vn 0 0.9608 -0.27724
vn -0.25401 0.92929 -0.26814
vn 0 0.87886 0.47708
vn 0 0.70359 0.71061
vn 0 0.92268 0.38558
vn 0 -0.99497 0.10019
vn 0 0.83626 0.54834
vn 0 -0.93095 0.36516
vn 6E-05 0.7522 0.65893
vn 6E-05 0.75236 0.65876
vn 0 0.55338 0.83293
vn 0 0.51693 0.85603
vn 0 -0.75859 -0.65156
vn 0 -0.96471 -0.26332
vn 0 -0.75861 -0.65155
vn 0 0.96409 -0.26557
vn 0 0.95559 -0.29469
vn 0 -0.87889 0.47702
vn 0 -0.89321 -0.44964
vn 0 0.94546 0.32573
vn 0 0.93396 0.35738
vn -0.70032 0.66669 0.25511
vn -0.02286 0.94521 0.32567
vn 0 -0.6668 -0.74523
vn 0 -0.28285 0.95916
vn 0 -0.65949 -0.75172
vn 0 -0.87003 0.493
vn 0 -0.87006 0.49294
vn 0 0.93886 0.34429
vn -0.69724 0.67301 0.24681
vn 0 0.53535 -0.84463
vn 0 0.98302 -0.18351
vn 0 -0.84491 0.5349
vn 0 -0.67949 0.73369
vn 0 -0.73225 -0.68104
vn 0 0.66883 -0.74342
vn 0 0.5075 -0.86165
vn 0 0.66071 -0.75065
vn 0 -0.99818 -0.06027
vn 0 -0.95776 0.28758
vn 0 -0.97115 0.23848
vn 0 0.99525 0.09732
vn -0.66315 0.74494 0.07285
vn 0 -0.99096 0.13419
vn 0 -0.99942 0.034
vn 0 0.95764 -0.28798
vn 0 0.39159 0.92014
vn 0 0.94822 0.31761
vn 0 0.09458 -0.99552
vn 0 0.68674 -0.7269
vn 0 0.93712 -0.34902
vn 0 0.50458 -0.86337
vn 0 0.55169 0.83405
vn 0 0.9965 0.08359
vn 0 0.11487 0.99338
vn 0 0.8274 0.56161
vn 0 -0.99201 -0.12613
vn 0 0.04474 0.999
vn 0 0.22025 0.97544
vn 0 -0.80626 -0.59156
vn 0 0.26772 0.9635
vn 0 0.76429 0.64487
vn 0 0.83242 0.55414
vn 0 0.90288 0.42989
vn 0 -0.29445 0.95567
vn 0 0.29576 0.95526
vn 0 -0.76083 -0.64895
vn 0 0.99797 -0.06375
vn 0 -0.98347 0.1811
vn 0 -0.92931 0.36931
vn 0 -0.73958 0.67307
vn 0 0.95609 -0.29308
vn 0 0.24369 -0.96985
vn 0 0.59479 -0.80388
vn 0 -0.984 0.17814
vn 0 -0.99296 0.11841
vn 0 0.94869 -0.31621
vn 0 -0.9947 0.10285
vn 0 0.68922 0.72456
vn 0 0.64523 0.76398
vn 0 -0.82947 0.55855
vn 0 -0.87257 0.48849
vn 0 0.87306 0.48761
vn 0 -0.16023 -0.98708
vn 0 0.83297 -0.55332
vn 0 -0.89053 -0.45492
vn 0 -0.98578 -0.16807
vn 0 -0.96208 -0.27278
vn 0 0.85547 0.51784
vn 0 0.27495 -0.96146
vn 0 -0.21128 0.97743
vn 0 0.93108 0.36483
vn 0 0.30669 0.95181
vn 0 0.6692 -0.74308
vn 0 0.45562 0.89018
vn 0 0 -1
vn 0 0 1
vn 0 1 -0
vt 0.55496 0.52878
vt 0.53083 0.52627
vt 0.54999 0.53298
vt 0.54999 0.53298
vt 0.53083 0.52627
vt 1 1
vt 0 1
vt 1 0.52571
vt 1 0.52571
vt 0 0.65385
vt 0 0.65385
vt 0.61388 0
vt 1 0
vt 0.61388 0
vt 0 0.39289
vt 0 0
vt 0.36745 0
vt 0.6134 0
vt 0.6134 0
vt 0.6134 0
vt 0.36745 0
vt 0.03208 0
vt 0.36745 0
vt 0.03208 0
vt 0.03208 0
vt 0.58255 0.48393
vt 0.59366 0.4849
vt 0.55229 0.49446
vt 0.63102 0.47321
vt 0.60592 0.47415
vt 0.62949 0.46669
vt 0.64481 0.46842
usemtl mat1
f 197/182/25 198/183/26 199/184/27
f 200/182/28 201/185/29 202/186/30
f 203/187/31 204/187/31 205/188/31
f 203/187/31 205/188/31 206/188/31
f 207/188/32 208/188/33 209/188/33
f 207/188/32 209/188/33 210/188/32
f 211/188/25 212/188/26 213/188/30
f 211/188/25 213/188/30 214/188/28
f 215/188/34 216/188/35 217/188/35
f 215/188/34 217/188/35 218/188/34
f 219/188/36 220/188/37 221/188/37
f 219/188/36 221/188/37 222/188/36
f 223/188/38 224/188/39 225/188/39
f 223/188/38 225/188/39 226/188/38
f 227/188/40 228/188/41 229/188/41
f 227/188/40 229/188/41 230/188/40
f 231/188/42 232/188/43 233/188/43
f 231/188/42 233/188/43 234/188/42
f 235/188/44 236/188/45 237/188/45
f 235/188/44 237/188/45 238/188/44
f 239/188/46 240/188/47 241/188/47
f 239/188/46 241/188/47 242/188/46
f 243/188/48 244/188/49 245/188/49
f 243/188/48 245/188/49 246/188/48
f 247/188/50 248/188/51 249/188/51
f 247/188/50 249/188/51 250/188/50
f 251/188/52 239/188/46 242/188/46
f 251/188/52 242/188/46 252/188/52
f 253/188/53 254/188/54 255/188/54
f 253/188/53 255/188/54 256/188/53
f 257/188/55 258/188/56 259/188/56
f 257/188/55 259/188/56 260/188/55
f 261/188/57 262/188/58 263/188/58
f 261/188/57 263/188/58 264/188/57
f 265/188/59 243/188/48 246/188/48
f 265/188/59 246/188/48 266/188/59
f 267/188/60 268/188/61 269/188/61
f 267/188/60 269/188/61 270/188/60
f 271/188/62 272/188/63 273/188/64
f 271/188/62 273/188/64 274/188/65
f 275/188/66 276/188/67 277/188/67
f 275/188/66 277/188/67 278/188/66
f 279/188/68 280/188/69 281/188/69
f 279/188/68 281/188/69 282/188/68
f 223/188/38 283/188/70 284/188/70
f 223/188/38 284/188/70 226/188/38
f 285/188/71 286/188/72 287/188/72
f 285/188/71 287/188/72 288/188/71
f 289/188/73 290/188/74 291/188/74
f 289/188/73 291/188/74 292/188/73
f 257/188/55 293/188/75 294/188/76
f 257/188/55 294/188/76 260/188/55
f 295/188/77 296/188/78 297/188/78
f 295/188/77 297/188/78 298/188/77
f 299/188/79 300/188/80 301/188/80
f 299/188/79 301/188/80 302/188/79
f 303/188/81 304/188/82 305/188/82
f 303/188/81 305/188/82 306/188/81
f 307/188/83 308/188/84 309/188/84
f 307/188/83 309/188/84 310/188/83
f 311/188/85 272/188/63 273/188/64
f 311/188/85 273/188/64 312/188/86
f 303/188/81 313/188/87 314/188/87
f 303/188/81 314/188/87 306/188/81
f 261/188/57 275/188/66 278/188/66
f 261/188/57 278/188/66 264/188/57
f 315/188/88 316/188/89 317/188/89
f 315/188/88 317/188/89 318/188/88
f 250/188/50 319/188/90 320/188/90
f 250/188/50 320/188/90 247/188/50
f 321/188/91 251/188/52 252/188/52
f 321/188/91 252/188/52 322/188/91
f 323/188/92 324/188/93 325/188/94
f 323/188/92 325/188/94 326/188/92
f 327/188/95 328/188/96 329/188/96
f 327/188/95 329/188/96 330/188/95
f 331/188/97 332/188/98 333/188/98
f 331/188/97 333/188/98 334/188/99
f 308/188/84 335/188/27 336/188/29
f 308/188/84 336/188/29 309/188/84
f 337/188/100 338/188/101 339/188/101
f 337/188/100 339/188/101 340/188/100
f 212/188/26 335/188/27 336/188/29
f 212/188/26 336/188/29 213/188/30
f 341/188/102 342/188/103 343/188/103
f 341/188/102 343/188/103 344/188/102
f 345/188/104 346/188/105 347/188/106
f 345/188/104 347/188/106 348/188/107
f 227/188/40 349/188/108 350/188/108
f 227/188/40 350/188/108 230/188/40
f 304/188/82 351/188/109 352/188/109
f 304/188/82 352/188/109 305/188/82
f 351/188/109 331/188/97 334/188/99
f 351/188/109 334/188/99 352/188/109
f 353/188/110 354/188/111 355/188/112
f 353/188/110 355/188/112 356/188/110
f 346/188/105 357/188/113 358/188/114
f 346/188/105 358/188/114 347/188/106
f 308/188/84 219/188/36 222/188/36
f 308/188/84 222/188/36 309/188/84
f 262/188/58 359/188/115 360/188/115
f 262/188/58 360/188/115 263/188/58
f 361/188/116 337/188/100 340/188/100
f 361/188/116 340/188/100 362/188/116
f 363/188/117 364/188/118 365/188/118
f 363/188/117 365/188/118 366/188/117
f 349/188/108 367/188/119 368/188/119
f 349/188/108 368/188/119 350/188/108
f 369/188/120 370/188/121 371/188/121
f 369/188/120 371/188/121 372/188/120
f 240/188/47 373/188/122 374/188/122
f 240/188/47 374/188/122 241/188/47
f 227/188/40 375/188/123 376/188/123
f 227/188/40 376/188/123 230/188/40
f 211/188/25 335/188/27 336/188/29
f 211/188/25 336/188/29 214/188/28
f 377/188/124 378/188/125 379/188/125
f 377/188/124 379/188/125 380/188/124
f 381/188/126 311/188/85 312/188/86
f 381/188/126 312/188/86 382/188/127
f 383/188/128 384/188/129 385/188/129
f 383/188/128 385/188/129 386/188/128
f 387/188/130 388/188/131 389/188/131
f 387/188/130 389/188/131 390/188/130
f 391/188/132 299/188/79 302/188/79
f 391/188/132 302/188/79 392/188/132
f 268/188/61 393/188/133 394/188/133
f 268/188/61 394/188/133 269/188/61
f 395/188/134 396/188/135 397/188/135
f 395/188/134 397/188/135 398/188/134
f 285/188/71 377/188/124 380/188/124
f 285/188/71 380/188/124 288/188/71
f 313/188/87 228/188/41 229/188/41
f 313/188/87 229/188/41 314/188/87
f 399/188/136 400/188/137 401/188/137
f 399/188/136 401/188/137 402/188/136
f 403/188/138 404/188/139 405/188/139
f 403/188/138 405/188/139 406/188/138
f 257/188/55 407/188/140 408/188/140
f 257/188/55 408/188/140 260/188/55
f 409/188/141 323/188/92 326/188/92
f 409/188/141 326/188/92 410/188/141
f 411/188/142 412/188/143 413/188/143
f 411/188/142 413/188/143 414/188/142
f 208/188/33 327/188/95 330/188/95
f 208/188/33 330/188/95 209/188/33
f 415/188/144 353/188/110 356/188/110
f 415/188/144 356/188/110 416/188/144
f 417/188/145 418/188/146 419/188/146
f 417/188/145 419/188/146 420/188/145
f 236/188/45 387/188/130 390/188/130
f 236/188/45 390/188/130 237/188/45
f 328/188/96 354/188/111 355/188/112
f 328/188/96 355/188/112 329/188/96
f 296/188/78 391/188/132 392/188/132
f 296/188/78 392/188/132 297/188/78
f 421/188/147 422/188/148 423/188/148
f 421/188/147 423/188/148 424/188/147
f 425/188/149 426/188/150 427/188/150
f 425/188/149 427/188/150 428/188/149
f 367/188/119 429/188/151 430/188/151
f 367/188/119 430/188/151 368/188/119
f 244/188/49 235/188/44 238/188/44
f 244/188/49 238/188/44 245/188/49
f 232/188/43 431/188/152 432/188/152
f 232/188/43 432/188/152 233/188/43
f 258/188/56 425/188/149 428/188/149
f 258/188/56 428/188/149 259/188/56
f 433/188/153 434/188/154 435/188/154
f 433/188/153 435/188/154 436/188/153
f 425/188/149 437/188/155 438/188/155
f 425/188/149 438/188/155 428/188/149
f 439/188/156 321/188/91 322/188/91
f 439/188/156 322/188/91 440/188/156
f 319/188/90 363/188/117 366/188/117
f 319/188/90 366/188/117 320/188/90
f 441/188/157 442/188/158 443/188/158
f 441/188/157 443/188/158 444/188/157
f 403/188/138 439/188/156 440/188/156
f 403/188/138 440/188/156 406/188/138
f 364/188/118 383/188/128 386/188/128
f 364/188/118 386/188/128 365/188/118
f 378/188/125 445/188/159 446/188/159
f 378/188/125 446/188/159 379/188/125
f 311/188/85 231/188/42 234/188/42
f 311/188/85 234/188/42 312/188/86
f 447/188/160 211/188/25 214/188/28
f 447/188/160 214/188/28 448/188/160
f 328/188/96 215/188/34 218/188/34
f 328/188/96 218/188/34 329/188/96
f 331/188/97 449/188/161 450/188/161
f 331/188/97 450/188/161 334/188/99
f 451/188/162 433/188/153 436/188/153
f 451/188/162 436/188/153 452/188/162
f 453/188/163 303/188/81 306/188/81
f 453/188/163 306/188/81 454/188/163
f 313/188/87 455/188/164 456/188/164
f 313/188/87 456/188/164 314/188/87
f 457/188/165 458/188/166 459/188/166
f 457/188/165 459/188/166 460/188/165
f 461/188/167 261/188/57 264/188/57
f 461/188/167 264/188/57 462/188/167
f 463/188/168 464/188/169 465/188/169
f 463/188/168 465/188/169 466/188/168
f 442/188/158 285/188/71 288/188/71
f 442/188/158 288/188/71 443/188/158
f 421/188/147 415/188/144 416/188/144
f 421/188/147 416/188/144 424/188/147
f 418/188/146 295/188/77 298/188/77
f 418/188/146 298/188/77 419/188/146
f 384/188/129 323/188/92 326/188/92
f 384/188/129 326/188/92 385/188/129
f 404/188/139 265/188/59 266/188/59
f 404/188/139 266/188/59 405/188/139
f 403/188/138 464/188/169 465/188/169
f 403/188/138 465/188/169 406/188/138
f 463/188/168 240/188/47 241/188/47
f 463/188/168 241/188/47 466/188/168
f 208/188/33 293/188/75 294/188/76
f 208/188/33 294/188/76 209/188/33
f 286/188/72 399/188/136 402/188/136
f 286/188/72 402/188/136 287/188/72
f 431/188/152 361/188/116 362/188/116
f 431/188/152 362/188/116 432/188/152
f 467/188/170 468/188/171 469/188/171
f 467/188/170 469/188/171 470/188/170
f 370/188/121 267/188/60 270/188/60
f 370/188/121 270/188/60 371/188/121
f 471/188/172 451/188/162 452/188/162
f 471/188/172 452/188/162 472/188/172
f 451/188/162 253/188/53 256/188/53
f 451/188/162 256/188/53 452/188/162
f 276/188/67 473/188/173 474/188/173
f 276/188/67 474/188/173 277/188/67
f 345/188/104 271/188/62 274/188/65
f 345/188/104 274/188/65 348/188/107
f 393/188/133 475/188/174 476/188/174
f 393/188/133 476/188/174 394/188/133
f 357/188/113 381/188/126 382/188/127
f 357/188/113 382/188/127 358/188/114
f 254/188/54 458/188/166 459/188/166
f 254/188/54 459/188/166 255/188/54
f 437/188/155 411/188/142 414/188/142
f 437/188/155 414/188/142 438/188/155
f 364/188/118 477/188/175 478/188/175
f 364/188/118 478/188/175 365/188/118
f 422/188/148 479/188/176 480/188/176
f 422/188/148 480/188/176 423/188/148
f 341/188/102 453/188/163 454/188/163
f 341/188/102 454/188/163 344/188/102
f 481/188/177 417/188/145 420/188/145
f 481/188/177 420/188/145 482/188/177
f 388/188/131 481/188/177 482/188/177
f 388/188/131 482/188/177 389/188/131
f 224/188/39 227/188/40 230/188/40
f 224/188/39 230/188/40 225/188/39
f 387/188/130 464/188/169 465/188/169
f 387/188/130 465/188/169 390/188/130
f 409/188/141 441/188/157 444/188/157
f 409/188/141 444/188/157 410/188/141
f 290/188/74 471/188/172 472/188/172
f 290/188/74 472/188/172 291/188/74
f 458/188/166 307/188/83 310/188/83
f 458/188/166 310/188/83 459/188/166
f 338/188/101 395/188/134 398/188/134
f 338/188/101 398/188/134 339/188/101
f 232/188/43 279/188/68 282/188/68
f 232/188/43 282/188/68 233/188/43
f 220/188/37 463/188/168 466/188/168
f 220/188/37 466/188/168 221/188/37
f 475/188/174 223/188/38 226/188/38
f 475/188/174 226/188/38 476/188/174
f 299/188/79 345/188/104 348/188/107
f 299/188/79 348/188/107 302/188/79
f 325/188/94 483/188/178 484/188/178
f 325/188/94 484/188/178 324/188/93
f 455/188/164 400/188/137 401/188/137
f 455/188/164 401/188/137 456/188/164
f 475/188/174 403/188/138 406/188/138
f 475/188/174 406/188/138 476/188/174
f 316/188/89 369/188/120 372/188/120
f 316/188/89 372/188/120 317/188/89
f 216/188/35 421/188/147 424/188/147
f 216/188/35 424/188/147 217/188/35
f 485/188/179 359/188/115 360/188/115
f 485/188/179 360/188/115 486/188/179
f 351/188/109 400/188/137 401/188/137
f 351/188/109 401/188/137 352/188/109
f 375/188/123 341/188/102 344/188/102
f 375/188/123 344/188/102 376/188/123
f 407/188/140 461/188/167 462/188/167
f 407/188/140 462/188/167 408/188/140
f 280/188/69 467/188/170 470/188/170
f 280/188/69 470/188/170 281/188/69
f 485/188/179 257/188/55 260/188/55
f 485/188/179 260/188/55 486/188/179
f 395/188/134 289/188/73 292/188/73
f 395/188/134 292/188/73 398/188/134
f 434/188/154 457/188/165 460/188/165
f 434/188/154 460/188/165 435/188/154
f 468/188/171 447/188/160 448/188/160
f 468/188/171 448/188/160 469/188/171
f 391/188/132 212/188/26 213/188/30
f 391/188/132 213/188/30 392/188/132
f 300/188/80 485/188/179 486/188/179
f 300/188/80 486/188/179 301/188/80
f 426/188/150 207/188/32 210/188/32
f 426/188/150 210/188/32 427/188/150
f 304/188/82 455/188/164 456/188/164
f 304/188/82 456/188/164 305/188/82
f 399/188/136 315/188/88 318/188/88
f 399/188/136 318/188/88 402/188/136
f 487/189/180 203/187/180 488/190/180
f 203/187/180 487/189/180 204/187/180
f 204/187/180 487/189/180 489/190/180
f 205/188/181 490/191/181 206/188/181
f 490/191/181 205/188/181 491/191/181
f 491/191/181 205/188/181 492/192/181
f 493/193/182 494/194/182 495/194/182
f 494/194/182 493/193/182 496/195/182
f 494/194/180 488/190/180 495/194/180
f 488/190/180 494/194/180 487/189/180
f 487/189/180 494/194/180 489/190/180
f 491/191/181 497/196/181 490/191/181
f 497/196/181 491/191/181 498/196/181
f 498/196/181 491/191/181 492/192/181
f 498/196/181 492/192/181 499/196/181
f 498/196/181 500/197/181 497/196/181
f 500/197/181 498/196/181 501/197/181
f 501/197/181 498/196/181 499/196/181
f 502/198/182 503/199/182 504/200/182
f 503/199/182 502/198/182 505/201/182
f 505/201/182 502/198/182 506/202/182
f 507/203/182 508/204/182 502/198/182
f 508/204/182 507/203/182 506/202/182
f 506/202/182 507/203/182 509/205/182
f 500/197/182 510/206/182 507/203/182
f 510/206/182 500/197/182 509/205/182
f 509/205/182 500/197/182 501/197/182
f 511/207/106 512/208/65 513/209/107
f 512/208/65 511/207/106 514/210/64
f 514/210/64 511/207/106 515/211/114
f 514/210/64 515/211/114 516/212/127
f 514/210/64 516/212/127 517/213/86
# Vertices: 321, normals: 158, texture coordinates: 32, faces: 344

